<svg width="40" height="40" viewBox="0 0 40 40" fill="none" xmlns="http://www.w3.org/2000/svg">
<path d="M15.3125 17.1875H20.3125V30.625" stroke="#CC7722" stroke-width="1.25" stroke-linecap="round" stroke-linejoin="round"/>
<path d="M14.6094 30.9375H25.3906" stroke="#CC7722" stroke-width="1.25" stroke-miterlimit="10" stroke-linecap="round"/>
<path d="M20 12.5C19.5055 12.5 19.0222 12.3534 18.6111 12.0787C18.2 11.804 17.8795 11.4135 17.6903 10.9567C17.5011 10.4999 17.4516 9.99723 17.548 9.51228C17.6445 9.02732 17.8826 8.58187 18.2322 8.23223C18.5819 7.8826 19.0273 7.6445 19.5123 7.54804C19.9972 7.45157 20.4999 7.50108 20.9567 7.6903C21.4135 7.87952 21.804 8.19995 22.0787 8.61108C22.3534 9.0222 22.5 9.50555 22.5 10C22.5 10.663 22.2366 11.2989 21.7678 11.7678C21.2989 12.2366 20.663 12.5 20 12.5Z" fill="#CC7722"/>
</svg>
