<svg width="30" height="30" viewBox="0 0 30 30" fill="none" xmlns="http://www.w3.org/2000/svg">
<path d="M6.9 13.2015C5.7 14.1015 5.7 15.903 6.9 16.803L15.903 23.547C17.3865 24.657 19.503 23.5995 19.503 21.747V8.2545C19.503 6.4005 17.385 5.343 15.903 6.4545L6.9 13.2015ZM22.5 24C22.5 24.1989 22.579 24.3897 22.7197 24.5303C22.8603 24.671 23.0511 24.75 23.25 24.75C23.4489 24.75 23.6397 24.671 23.7803 24.5303C23.921 24.3897 24 24.1989 24 24V6C24 5.80109 23.921 5.61032 23.7803 5.46967C23.6397 5.32902 23.4489 5.25 23.25 5.25C23.0511 5.25 22.8603 5.32902 22.7197 5.46967C22.579 5.61032 22.5 5.80109 22.5 6V24Z" fill="#CC7722"/>
</svg>
