<svg width="228" height="54" viewBox="0 0 228 54" fill="none" xmlns="http://www.w3.org/2000/svg">
<path d="M92.0003 37.2752L87.8503 39.7752C87.667 39.8919 87.4753 39.9419 87.2753 39.9252C87.0753 39.9085 86.9003 39.8419 86.7503 39.7252C86.6003 39.6085 86.4837 39.4629 86.4003 39.2882C86.317 39.1135 86.3003 38.9175 86.3503 38.7002L87.4503 33.9752L83.7753 30.8002C83.6087 30.6502 83.5047 30.4792 83.4633 30.2872C83.422 30.0952 83.4343 29.9079 83.5003 29.7252C83.5663 29.5425 83.6663 29.3925 83.8003 29.2752C83.9343 29.1579 84.1177 29.0829 84.3503 29.0502L89.2003 28.6252L91.0753 24.1752C91.1587 23.9752 91.288 23.8252 91.4633 23.7252C91.6387 23.6252 91.8177 23.5752 92.0003 23.5752C92.183 23.5752 92.362 23.6252 92.5373 23.7252C92.7127 23.8252 92.842 23.9752 92.9253 24.1752L94.8003 28.6252L99.6503 29.0502C99.8837 29.0835 100.067 29.1585 100.2 29.2752C100.334 29.3919 100.434 29.5419 100.5 29.7252C100.567 29.9085 100.58 30.0962 100.538 30.2882C100.497 30.4802 100.393 30.6509 100.225 30.8002L96.5503 33.9752L97.6503 38.7002C97.7003 38.9169 97.6837 39.1129 97.6003 39.2882C97.517 39.4635 97.4003 39.6092 97.2503 39.7252C97.1003 39.8412 96.9253 39.9079 96.7253 39.9252C96.5253 39.9425 96.3337 39.8925 96.1503 39.7752L92.0003 37.2752Z" fill="#DEDEDE"/>
<path d="M118 37.2752L113.85 39.7752C113.667 39.8919 113.475 39.9419 113.275 39.9252C113.075 39.9085 112.9 39.8419 112.75 39.7252C112.6 39.6085 112.484 39.4629 112.4 39.2882C112.317 39.1135 112.3 38.9175 112.35 38.7002L113.45 33.9752L109.775 30.8002C109.609 30.6502 109.505 30.4792 109.463 30.2872C109.422 30.0952 109.434 29.9079 109.5 29.7252C109.566 29.5425 109.666 29.3925 109.8 29.2752C109.934 29.1579 110.118 29.0829 110.35 29.0502L115.2 28.6252L117.075 24.1752C117.159 23.9752 117.288 23.8252 117.463 23.7252C117.639 23.6252 117.818 23.5752 118 23.5752C118.183 23.5752 118.362 23.6252 118.537 23.7252C118.713 23.8252 118.842 23.9752 118.925 24.1752L120.8 28.6252L125.65 29.0502C125.884 29.0835 126.067 29.1585 126.2 29.2752C126.334 29.3919 126.434 29.5419 126.5 29.7252C126.567 29.9085 126.58 30.0962 126.538 30.2882C126.497 30.4802 126.393 30.6509 126.225 30.8002L122.55 33.9752L123.65 38.7002C123.7 38.9169 123.684 39.1129 123.6 39.2882C123.517 39.4635 123.4 39.6092 123.25 39.7252C123.1 39.8412 122.925 39.9079 122.725 39.9252C122.525 39.9425 122.334 39.8925 122.15 39.7752L118 37.2752Z" fill="#FFE100"/>
<path d="M144 37.2752L139.85 39.7752C139.667 39.8919 139.475 39.9419 139.275 39.9252C139.075 39.9085 138.9 39.8419 138.75 39.7252C138.6 39.6085 138.484 39.4629 138.4 39.2882C138.317 39.1135 138.3 38.9175 138.35 38.7002L139.45 33.9752L135.775 30.8002C135.609 30.6502 135.505 30.4792 135.463 30.2872C135.422 30.0952 135.434 29.9079 135.5 29.7252C135.566 29.5425 135.666 29.3925 135.8 29.2752C135.934 29.1579 136.118 29.0829 136.35 29.0502L141.2 28.6252L143.075 24.1752C143.159 23.9752 143.288 23.8252 143.463 23.7252C143.639 23.6252 143.818 23.5752 144 23.5752C144.183 23.5752 144.362 23.6252 144.537 23.7252C144.713 23.8252 144.842 23.9752 144.925 24.1752L146.8 28.6252L151.65 29.0502C151.884 29.0835 152.067 29.1585 152.2 29.2752C152.334 29.3919 152.434 29.5419 152.5 29.7252C152.567 29.9085 152.58 30.0962 152.538 30.2882C152.497 30.4802 152.393 30.6509 152.225 30.8002L148.55 33.9752L149.65 38.7002C149.7 38.9169 149.684 39.1129 149.6 39.2882C149.517 39.4635 149.4 39.6092 149.25 39.7252C149.1 39.8412 148.925 39.9079 148.725 39.9252C148.525 39.9425 148.334 39.8925 148.15 39.7752L144 37.2752Z" fill="#FFE100"/>
<path d="M170 37.2752L165.85 39.7752C165.667 39.8919 165.475 39.9419 165.275 39.9252C165.075 39.9085 164.9 39.8419 164.75 39.7252C164.6 39.6085 164.484 39.4629 164.4 39.2882C164.317 39.1135 164.3 38.9175 164.35 38.7002L165.45 33.9752L161.775 30.8002C161.609 30.6502 161.505 30.4792 161.463 30.2872C161.422 30.0952 161.434 29.9079 161.5 29.7252C161.566 29.5425 161.666 29.3925 161.8 29.2752C161.934 29.1579 162.118 29.0829 162.35 29.0502L167.2 28.6252L169.075 24.1752C169.159 23.9752 169.288 23.8252 169.463 23.7252C169.639 23.6252 169.818 23.5752 170 23.5752C170.183 23.5752 170.362 23.6252 170.537 23.7252C170.713 23.8252 170.842 23.9752 170.925 24.1752L172.8 28.6252L177.65 29.0502C177.884 29.0835 178.067 29.1585 178.2 29.2752C178.334 29.3919 178.434 29.5419 178.5 29.7252C178.567 29.9085 178.58 30.0962 178.538 30.2882C178.497 30.4802 178.393 30.6509 178.225 30.8002L174.55 33.9752L175.65 38.7002C175.7 38.9169 175.684 39.1129 175.6 39.2882C175.517 39.4635 175.4 39.6092 175.25 39.7252C175.1 39.8412 174.925 39.9079 174.725 39.9252C174.525 39.9425 174.334 39.8925 174.15 39.7752L170 37.2752Z" fill="#FFE100"/>
<path d="M196 37.2752L191.85 39.7752C191.667 39.8919 191.475 39.9419 191.275 39.9252C191.075 39.9085 190.9 39.8419 190.75 39.7252C190.6 39.6085 190.484 39.4629 190.4 39.2882C190.317 39.1135 190.3 38.9175 190.35 38.7002L191.45 33.9752L187.775 30.8002C187.609 30.6502 187.505 30.4792 187.463 30.2872C187.422 30.0952 187.434 29.9079 187.5 29.7252C187.566 29.5425 187.666 29.3925 187.8 29.2752C187.934 29.1579 188.118 29.0829 188.35 29.0502L193.2 28.6252L195.075 24.1752C195.159 23.9752 195.288 23.8252 195.463 23.7252C195.639 23.6252 195.818 23.5752 196 23.5752C196.183 23.5752 196.362 23.6252 196.537 23.7252C196.713 23.8252 196.842 23.9752 196.925 24.1752L198.8 28.6252L203.65 29.0502C203.884 29.0835 204.067 29.1585 204.2 29.2752C204.334 29.3919 204.434 29.5419 204.5 29.7252C204.567 29.9085 204.58 30.0962 204.538 30.2882C204.497 30.4802 204.393 30.6509 204.225 30.8002L200.55 33.9752L201.65 38.7002C201.7 38.9169 201.684 39.1129 201.6 39.2882C201.517 39.4635 201.4 39.6092 201.25 39.7252C201.1 39.8412 200.925 39.9079 200.725 39.9252C200.525 39.9425 200.334 39.8925 200.15 39.7752L196 37.2752Z" fill="#FFE100"/>
</svg>
