<svg width="42" height="46" viewBox="0 0 42 46" fill="none" xmlns="http://www.w3.org/2000/svg">
<path d="M29.6389 0.75V9.63888M11.8611 0.75V9.63888M40.75 22.9722C40.75 14.5922 40.75 10.4011 38.1456 7.79888C35.5411 5.19666 31.3522 5.19444 22.9722 5.19444H18.5278C10.1478 5.19444 5.95667 5.19444 3.35444 7.79888C0.752222 10.4033 0.75 14.5922 0.75 22.9722V27.4166C0.75 35.7966 0.75 39.9877 3.35444 42.59C5.95889 45.1922 10.1478 45.1944 18.5278 45.1944M0.75 18.5278H40.75" stroke="#CC7722" stroke-width="1.5" stroke-linecap="round" stroke-linejoin="round"/>
<path d="M34.6771 37.8633L31.8615 36.3055V32.4544M40.7504 36.3055C40.7504 38.663 39.8139 40.9239 38.1469 42.5909C36.4799 44.2579 34.219 45.1944 31.8615 45.1944C29.5041 45.1944 27.2431 44.2579 25.5762 42.5909C23.9092 40.9239 22.9727 38.663 22.9727 36.3055C22.9727 33.948 23.9092 31.6871 25.5762 30.0201C27.2431 28.3531 29.5041 27.4166 31.8615 27.4166C34.219 27.4166 36.4799 28.3531 38.1469 30.0201C39.8139 31.6871 40.7504 33.948 40.7504 36.3055Z" stroke="#CC7722" stroke-width="1.5" stroke-linecap="round" stroke-linejoin="round"/>
</svg>
