<svg width="40" height="40" viewBox="0 0 40 40" fill="none" xmlns="http://www.w3.org/2000/svg">
<path opacity="0.3" d="M8.33398 15.6166L23.334 9.84998V20H15.0007V31.6666H8.33398V15.6166ZM31.6673 31.6666H26.6673V26.6666H23.334V31.6666H18.334V23.3333H31.6673V31.6666Z" fill="#CC7722"/>
<path d="M31.6667 16.6667C29.8333 16.6667 28.3333 18.1667 28.3333 20H26.6667V5L5 13.3333V35H35V20C35 18.1667 33.5 16.6667 31.6667 16.6667ZM8.33333 15.6167L23.3333 9.85V20H15V31.6667H8.33333V15.6167ZM31.6667 31.6667H26.6667V26.6667H23.3333V31.6667H18.3333V23.3333H31.6667V31.6667Z" fill="#CC7722"/>
</svg>
