<svg width="40" height="40" viewBox="0 0 40 40" fill="none" xmlns="http://www.w3.org/2000/svg">
<path d="M25 35V21.6667C25 21.2246 24.8244 20.8007 24.5118 20.4882C24.1993 20.1756 23.7754 20 23.3333 20H16.6667C16.2246 20 15.8007 20.1756 15.4882 20.4882C15.1756 20.8007 15 21.2246 15 21.6667V35" stroke="#CC7722" stroke-width="2" stroke-linecap="round" stroke-linejoin="round"/>
<path d="M5 16.6667C4.99988 16.1818 5.10556 15.7027 5.30965 15.2628C5.51374 14.823 5.81133 14.433 6.18167 14.12L17.8483 4.11999C18.45 3.6115 19.2123 3.33252 20 3.33252C20.7877 3.33252 21.55 3.6115 22.1517 4.11999L33.8183 14.12C34.1887 14.433 34.4863 14.823 34.6904 15.2628C34.8944 15.7027 35.0001 16.1818 35 16.6667V31.6667C35 32.5507 34.6488 33.3986 34.0237 34.0237C33.3986 34.6488 32.5507 35 31.6667 35H8.33333C7.44928 35 6.60143 34.6488 5.97631 34.0237C5.35119 33.3986 5 32.5507 5 31.6667V16.6667Z" stroke="#CC7722" stroke-width="2" stroke-linecap="round" stroke-linejoin="round"/>
</svg>
