<svg width="40" height="40" viewBox="0 0 40 40" fill="none" xmlns="http://www.w3.org/2000/svg">
<path fill-rule="evenodd" clip-rule="evenodd" d="M13.6203 26.3817C20.0287 32.79 25.967 33.4917 27.7103 33.5567C29.817 33.6333 31.967 31.9133 32.897 30.1517C31.4137 28.4117 29.482 27.0617 27.367 25.5983C26.1187 26.845 24.5803 29.1617 22.532 28.3317C21.367 27.8633 18.4903 26.5383 15.977 24.0233C13.4637 21.5083 12.1387 18.6333 11.667 17.47C10.837 15.4183 13.1603 13.8767 14.4087 12.6283C12.9453 10.4783 11.6187 8.49666 9.88199 7.08833C8.09532 8.02166 6.36532 10.155 6.44366 12.29C6.50866 14.0333 7.21033 19.9717 13.6203 26.3817ZM27.587 36.8883C25.187 36.8 18.3853 35.86 11.262 28.7383C4.14033 21.615 3.20199 14.815 3.11199 12.4133C2.97866 8.75333 5.78199 5.19833 9.02033 3.80999C9.41029 3.6416 9.83733 3.57749 10.2595 3.62395C10.6818 3.67041 11.0846 3.82584 11.4287 4.07499C14.1087 6.02999 15.957 8.99166 17.5453 11.3117C17.8757 11.7941 18.0271 12.3768 17.9732 12.9591C17.9194 13.5413 17.6636 14.0864 17.2503 14.5L14.9903 16.7617C15.5153 17.92 16.5837 19.9167 18.3337 21.6667C20.0837 23.4167 22.0803 24.485 23.2403 25.01L25.4987 22.75C25.9133 22.3349 26.4608 22.0789 27.0452 22.0268C27.6296 21.9747 28.2137 22.1298 28.6953 22.465C31.062 24.105 33.842 25.9267 35.8687 28.5217C36.138 28.8682 36.3094 29.2807 36.3648 29.7161C36.4202 30.1514 36.3577 30.5937 36.1837 30.9967C34.7887 34.2517 31.2587 37.0233 27.587 36.8883Z" fill="#CC7722"/>
</svg>
