<svg width="30" height="30" viewBox="0 0 30 30" fill="none" xmlns="http://www.w3.org/2000/svg">
<rect width="30" height="30" rx="2" fill="white"/>
<path d="M24.3756 15.715L15.0006 25L5.62562 15.715C5.00725 15.1132 4.52017 14.39 4.19506 13.5908C3.86994 12.7915 3.71382 11.9337 3.73654 11.0711C3.75926 10.2086 3.96032 9.36015 4.32707 8.57915C4.69381 7.79815 5.21829 7.10154 5.86748 6.5332C6.51667 5.96486 7.2765 5.53709 8.09913 5.27683C8.92177 5.01657 9.78938 4.92946 10.6473 5.02098C11.5053 5.1125 12.335 5.38067 13.0842 5.80861C13.8334 6.23655 14.4859 6.81498 15.0006 7.50748C15.5175 6.82 16.1708 6.24663 16.9195 5.82323C17.6682 5.39984 18.4962 5.13554 19.3518 5.04688C20.2073 4.95822 21.072 5.0471 21.8916 5.30797C22.7112 5.56883 23.4682 5.99607 24.1151 6.56293C24.762 7.12979 25.2849 7.82408 25.6511 8.60234C26.0174 9.3806 26.219 10.2261 26.2435 11.0859C26.268 11.9456 26.1147 12.8012 25.7933 13.599C25.4719 14.3969 24.9893 15.1198 24.3756 15.7225" stroke="black" stroke-width="2" stroke-linecap="round" stroke-linejoin="round"/>
</svg>
