<svg width="10" height="20" viewBox="0 0 10 20" fill="none" xmlns="http://www.w3.org/2000/svg">
<path d="M9.73716 18.4492L2.05252 10.6412C1.88398 10.4708 1.78945 10.2409 1.78945 10.0012C1.78945 9.7616 1.88398 9.53163 2.05252 9.36127L9.73549 1.55164C9.90394 1.38022 9.99833 1.1495 9.99833 0.909169C9.99833 0.668836 9.90394 0.438117 9.73549 0.266699C9.6532 0.182289 9.55485 0.115206 9.44622 0.0694016C9.3376 0.0235975 9.22091 0 9.10302 0C8.98514 0 8.86844 0.0235975 8.75982 0.0694016C8.6512 0.115206 8.55284 0.182289 8.47055 0.266699L0.787581 8.073C0.282728 8.58718 -0.000123024 9.27898 -0.000123024 9.99957C-0.000123024 10.7202 0.282728 11.412 0.787581 11.9261L8.47055 19.7324C8.55287 19.8171 8.65133 19.8844 8.7601 19.9304C8.86888 19.9763 8.98577 20 9.10385 20C9.22194 20 9.33883 19.9763 9.44761 19.9304C9.55638 19.8844 9.65484 19.8171 9.73716 19.7324C9.90561 19.561 10 19.3303 10 19.09C10 18.8496 9.90561 18.6189 9.73716 18.4475" fill="white"/>
</svg>
